<svg width="212" height="92" viewBox="0 0 212 92" fill="none" xmlns="http://www.w3.org/2000/svg">
<path d="M107.027 45.1412C132.47 52.8194 144.052 33.191 174.907 45.5366C201.678 56.2648 210.043 73.7497 210.043 73.7497C184.592 59.6909 159.775 66.1214 145.125 72.5012C125.897 80.8599 112.965 74.7429 112.965 74.7429C109.36 82.8372 101.601 88.8018 92.1008 89.6508C83.0386 90.4623 74.6684 86.3883 69.5669 79.6189C64.8653 85.2403 58.0088 89.0511 50.1569 89.7573C35.6891 91.0628 22.7837 81.3642 19.6428 67.5769C18.4166 68.0982 17.0721 68.4482 15.6812 68.5685C8.34401 69.23 1.88453 63.8496 1.22255 56.5142C0.637776 49.7686 5.17506 43.7462 11.6702 42.3536C11.7196 42.3236 11.7454 42.3212 11.7968 42.3168C11.4029 41.3652 11.0842 40.3812 10.8403 39.365C10.7666 39.1121 10.7164 38.831 10.6681 38.5757C10.4309 37.6368 10.2967 36.6883 10.212 35.7102C9.03134 22.6865 18.6439 11.1666 31.6978 10.0095C37.9534 9.44148 43.8309 11.3966 48.4236 14.9932C51.6816 7.68116 58.6894 2.32696 67.1851 1.56456C78.434 0.53813 88.4615 7.86602 91.2698 18.4137C106.198 13.4368 116.246 20.7112 118.75 30.7407C120.313 37.0905 116.455 43.4687 110.132 45.0541C109.09 45.2995 108.03 45.3395 107.027 45.1412Z" fill="#2BA193"/>
<path d="M69.5561 80.7863C69.2683 80.7863 68.9793 80.6798 68.7541 80.4672C68.2841 80.0243 68.2631 79.2853 68.7069 78.8166C71.3314 76.0389 72.7144 72.4051 72.6 68.5844C72.4875 64.7815 70.9019 61.2557 68.1364 58.6562C64.6752 55.3877 59.2151 55.5318 55.9622 58.9724C54.0531 60.9924 54.141 64.1869 56.1586 66.0957C56.6274 66.5398 56.6468 67.2793 56.2041 67.7475C55.7615 68.2162 55.0235 68.2372 54.5519 67.7931C51.5991 64.9988 51.4696 60.3231 54.2644 57.3677C58.3979 52.9932 65.34 52.806 69.7383 56.954C72.9591 59.9823 74.8045 64.088 74.9368 68.5143C75.0674 72.9604 73.458 77.1892 70.4046 80.4197C70.1754 80.6632 69.8665 80.7863 69.5561 80.7863Z" fill="url(#paint0_linear_479_26482)"/>
<path d="M29.7528 56.0138C21.3458 56.0138 13.5834 50.7993 10.576 42.7621C10.1575 41.679 9.85616 40.5944 9.68591 39.5525C9.64197 39.4306 9.58694 39.148 9.53706 38.8832C9.41551 38.249 9.8229 37.5935 10.4572 37.4732C11.0946 37.3485 11.6956 37.7241 11.8144 38.3555C11.8144 38.3571 11.8326 38.447 11.8326 38.447C11.8694 38.6413 11.907 38.8499 11.9621 39.0399C12.1371 40.0592 12.3956 40.9871 12.759 41.9316C15.7593 49.9478 24.0689 54.7831 32.5551 53.4582C38.5601 52.5165 42.6785 46.8444 41.7338 40.8149C41.4571 39.0839 40.5211 37.5626 39.1021 36.5346C37.6843 35.5046 35.9482 35.0882 34.2153 35.3696C33.231 35.5216 32.3682 36.0509 31.7795 36.8572C31.1908 37.6648 30.9505 38.6504 31.1025 39.6301C31.2015 40.269 30.7648 40.8656 30.1273 40.9641C29.4927 41.0674 28.8937 40.6265 28.7931 39.9892C28.5464 38.3923 28.936 36.7919 29.8914 35.4825C30.8483 34.1683 32.2542 33.3105 33.8498 33.0623C36.2004 32.6882 38.5494 33.2495 40.4739 34.6429C42.3985 36.0378 43.6658 38.1002 44.0416 40.4487C45.1858 47.756 40.194 54.6267 32.9174 55.7676C31.8587 55.933 30.7996 56.0138 29.7528 56.0138Z" fill="url(#paint1_linear_479_26482)"/>
<path d="M47.5902 91.0402C34.2813 91.0402 22.3826 82.0553 18.8225 69.123C17.8307 69.4377 16.8096 69.6416 15.7767 69.7315C11.9442 70.0889 8.16349 68.9117 5.19685 66.4368C2.22863 63.9636 0.403017 60.477 0.054606 56.6183C-0.540068 49.7658 3.77904 43.4822 10.2433 41.5152C10.035 40.902 9.85208 40.2742 9.69886 39.6365C9.61532 39.3507 9.53023 39.0313 9.49974 38.6754C9.29901 37.9455 9.14496 36.9748 9.04321 35.8099C8.44379 29.202 10.4579 22.7545 14.7164 17.6588C18.9745 12.5615 24.9676 9.43114 31.5902 8.8441C37.394 8.32396 43.1645 9.86459 47.9801 13.2158C51.7319 5.9952 58.925 1.13066 67.0763 0.399133C78.3545 -0.601564 88.6357 6.27665 92.0509 16.9407C99.0144 14.8705 105.389 15.2647 110.55 18.0966C115.217 20.6597 118.531 25.048 119.88 30.4553C121.587 37.3929 117.34 44.4476 110.413 46.1862C109.156 46.4815 107.945 46.5147 106.793 46.2851C106.16 46.1604 105.749 45.5461 105.876 44.9115C106.002 44.2786 106.623 43.8804 107.25 43.9944C108.068 44.1571 108.948 44.1329 109.86 43.9152C115.527 42.4945 119.011 36.7053 117.612 31.0166C116.422 26.2526 113.515 22.3907 109.425 20.1455C104.566 17.4775 98.4146 17.2629 91.6352 19.5216C91.3307 19.6222 90.9947 19.5949 90.712 19.4413C90.4273 19.2877 90.219 19.0244 90.137 18.7141C87.4139 8.48942 77.8045 1.7648 67.2873 2.72631C59.4963 3.42418 52.6762 8.30693 49.4874 15.467C49.3397 15.7971 49.0507 16.039 48.7007 16.1257C48.3491 16.2139 47.9813 16.1348 47.6982 15.9127C43.1388 12.3382 37.493 10.659 31.7985 11.1713C25.7967 11.7037 20.3686 14.5391 16.5099 19.1571C12.6532 23.7734 10.8276 29.6129 11.3708 35.6028C11.4607 36.6447 11.5961 37.4982 11.7969 38.2891C11.844 38.671 11.9018 38.8444 11.9521 39.0194C12.2015 40.0494 12.5059 40.9848 12.8722 41.8687C13.0139 42.2123 12.9846 42.6034 12.7918 42.9212C12.6259 43.1936 12.3595 43.3852 12.0523 43.4552C12.0067 43.4703 11.9596 43.4841 11.9109 43.4948C5.95029 44.7726 1.85447 50.3259 2.38263 56.4132C2.67442 59.6453 4.20505 62.569 6.69262 64.6425C9.1798 66.7171 12.3369 67.6905 15.5712 67.4047C16.8096 67.2978 18.0239 66.9938 19.18 66.501C19.5023 66.3656 19.863 66.3794 20.169 66.5358C20.4778 66.6941 20.7 66.9799 20.7776 67.316C23.8202 80.6758 36.3825 89.8174 50.0473 88.5931C57.3592 87.936 63.971 84.483 68.6658 78.8687C68.8943 78.5968 69.2031 78.4583 69.5907 78.4503C69.9482 78.4594 70.2796 78.6316 70.4942 78.9159C75.577 85.6575 83.6162 89.2288 91.9927 88.4866C100.707 87.7076 108.334 82.2592 111.892 74.2674C113.483 70.7765 114.192 67.0452 114.002 63.1695C113.97 62.5243 114.468 61.9768 115.111 61.9448C115.755 61.9206 116.304 62.4103 116.336 63.0535C116.541 67.2471 115.741 71.4561 114.023 75.2254C110.123 83.9839 101.76 89.9584 92.1994 90.8134C83.4879 91.5936 75.1098 88.1058 69.517 81.439C64.4979 86.8981 57.7115 90.2493 50.2566 90.9203C49.3623 91.001 48.4739 91.0402 47.5902 91.0402Z" fill="url(#paint2_linear_479_26482)"/>
<path d="M106.859 46.2704C106.784 46.2704 106.708 46.2628 106.632 46.249C103.361 45.6042 100.729 43.1004 99.9271 39.8684C99.1376 36.7151 101.062 33.5024 104.219 32.7067C104.847 32.5516 105.482 32.9288 105.638 33.5538C105.795 34.1805 105.416 34.815 104.791 34.9733C102.882 35.4539 101.716 37.3963 102.194 39.3023C102.779 41.6616 104.698 43.4868 107.082 43.9555C107.715 44.0802 108.127 44.6945 108.004 45.3275C107.895 45.884 107.405 46.2704 106.859 46.2704Z" fill="url(#paint3_linear_479_26482)"/>
<path d="M125.236 78.0905C117.46 78.0905 112.785 75.9506 112.463 75.7966C111.88 75.5215 111.632 74.8276 111.906 74.2437C112.18 73.6626 112.875 73.4144 113.46 73.684C113.584 73.7434 126.199 79.4475 144.655 71.4285C160.067 64.7161 183.046 59.4074 206.838 70.7868C202.945 65.2256 193.321 54.1736 174.468 46.6197C158.014 40.0348 147.114 42.7515 136.575 45.3724C127.733 47.5733 118.59 49.849 106.698 46.2622C106.595 46.2408 106.499 46.2135 106.431 46.1862C105.831 45.9475 105.539 45.2675 105.779 44.6681C106.009 44.0946 106.645 43.8012 107.215 43.9881C107.264 43.9956 107.313 44.0063 107.36 44.0217C118.643 47.4288 127.082 45.3268 136.01 43.1046C146.914 40.3926 158.189 37.5908 175.336 44.4508C202.222 55.2245 210.743 72.5135 211.093 73.245C211.312 73.7026 211.211 74.2505 210.841 74.5988C210.473 74.9487 209.917 75.02 209.475 74.7706C185.189 61.3578 161.329 66.7167 145.588 73.5704C137.58 77.0503 130.655 78.0905 125.236 78.0905Z" fill="url(#paint4_linear_479_26482)"/>
<defs>
<linearGradient id="paint0_linear_479_26482" x1="52.25" y1="53.9609" x2="76.1572" y2="55.0895" gradientUnits="userSpaceOnUse">
<stop stop-color="#D0A862"/>
<stop offset="0.411458" stop-color="#F3D283"/>
<stop offset="0.71875" stop-color="#D0A862"/>
<stop offset="1" stop-color="#F3D283"/>
</linearGradient>
<linearGradient id="paint1_linear_479_26482" x1="9.51562" y1="32.9492" x2="45.8844" y2="36.0014" gradientUnits="userSpaceOnUse">
<stop stop-color="#D0A862"/>
<stop offset="0.411458" stop-color="#F3D283"/>
<stop offset="0.71875" stop-color="#D0A862"/>
<stop offset="1" stop-color="#F3D283"/>
</linearGradient>
<linearGradient id="paint2_linear_479_26482" x1="0" y1="0.302734" x2="126.277" y2="9.64141" gradientUnits="userSpaceOnUse">
<stop stop-color="#D0A862"/>
<stop offset="0.411458" stop-color="#F3D283"/>
<stop offset="0.71875" stop-color="#D0A862"/>
<stop offset="1" stop-color="#F3D283"/>
</linearGradient>
<linearGradient id="paint3_linear_479_26482" x1="99.75" y1="32.6719" x2="108.477" y2="32.9682" gradientUnits="userSpaceOnUse">
<stop stop-color="#D0A862"/>
<stop offset="0.411458" stop-color="#F3D283"/>
<stop offset="0.71875" stop-color="#D0A862"/>
<stop offset="1" stop-color="#F3D283"/>
</linearGradient>
<linearGradient id="paint4_linear_479_26482" x1="105.695" y1="40.168" x2="214.473" y2="57.0561" gradientUnits="userSpaceOnUse">
<stop stop-color="#D0A862"/>
<stop offset="0.411458" stop-color="#F3D283"/>
<stop offset="0.71875" stop-color="#D0A862"/>
<stop offset="1" stop-color="#F3D283"/>
</linearGradient>
</defs>
</svg>
